# xmcd CD database file
#
# Track frame offsets:
#	150
#	15465
#	30748
#	48805
#	62362
#	70711
#	85979
#	99814
#	113884
#	128110
#	135900
#	155320
#	178021
#	197978
#	215309
#	233279
#
# Disc length: 3322 seconds
#
# Revision: 2
# Processed by: cddbd v1.5.2PL0 Copyright (c) Steve Scherf et al.
# Submitted via: CDex 1.51
#
DISCID=bd0cf810
DTITLE=Paul Geremia - Live From Uncle Sam's Backyard
DYEAR=1997
DGENRE=Blues
TTITLE0=Diggin' Uncle Sam's Backyard
TTITLE1=Arrangement For Me Blues
TTITLE2=Devil Got My Woman
TTITLE3=Piccolo/Kill It Kid Rag
TTITLE4=Rap About Hambone Willie
TTITLE5=Travellin' Riverside
TTITLE6=I Really Don't Mind Livin'
TTITLE7=Dying Crapshooter's Blues
TTITLE8=Ain't Nobody Home But Me
TTITLE9=Rap About Son House
TTITLE10=My Kinda Place
TTITLE11=The Monkey and the Baboon
TTITLE12=Broke Down Engine
TTITLE13=Holly
TTITLE14=Something's Gotta Be Arranged
TTITLE15=Big Walter
EXTD=YEAR: 1997
EXTT0=
EXTT1=
EXTT2=
EXTT3=
EXTT4=
EXTT5=
EXTT6=
EXTT7=
EXTT8=
EXTT9=
EXTT10=
EXTT11=
EXTT12=
EXTT13=
EXTT14=
EXTT15=
PLAYORDER=
